<?xml version="1.0" encoding="UTF-8"?>
<!DOCTYPE svg PUBLIC "-//W3C//DTD SVG 1.1//EN" "http://www.w3.org/Graphics/SVG/1.1/DTD/svg11.dtd">
<svg xmlns="http://www.w3.org/2000/svg" version="1.1" width="50px" height="50px" style="shape-rendering:geometricPrecision; text-rendering:geometricPrecision; image-rendering:optimizeQuality; fill-rule:evenodd; clip-rule:evenodd" xmlns:xlink="http://www.w3.org/1999/xlink">
<g><path style="opacity:0.873" fill="#fefffe" d="M 18.5,5.5 C 36.6483,4.1477 44.815,12.481 43,30.5C 36.1778,44.0423 26.0111,47.209 12.5,40C 4.60187,31.7455 3.4352,22.5788 9,12.5C 11.7901,9.53498 14.9567,7.20165 18.5,5.5 Z M 24.5,10.5 C 26.3713,13.1483 28.3713,15.815 30.5,18.5C 30,18.8333 29.5,19.1667 29,19.5C 24.5821,13.7146 22.5821,14.3812 23,21.5C 24.828,23.0814 26.828,24.4147 29,25.5C 30.373,27.6954 30.7063,30.0288 30,32.5C 27.7993,34.1791 25.966,36.1791 24.5,38.5C 23.034,36.1791 21.2007,34.1791 19,32.5C 18.5172,31.552 18.3505,30.552 18.5,29.5C 19.5,29.5 20.5,29.5 21.5,29.5C 23.3841,34.7626 25.3841,34.7626 27.5,29.5C 27.4712,27.9707 26.8045,26.804 25.5,26C 21.8201,24.9868 19.4868,22.6534 18.5,19C 20.3773,15.9505 22.3773,13.1171 24.5,10.5 Z"/></g>
</svg>
