<?xml version="1.0" encoding="UTF-8"?>
<!DOCTYPE svg PUBLIC "-//W3C//DTD SVG 1.1//EN" "http://www.w3.org/Graphics/SVG/1.1/DTD/svg11.dtd">
<svg xmlns="http://www.w3.org/2000/svg" version="1.1" width="50px" height="50px" style="shape-rendering:geometricPrecision; text-rendering:geometricPrecision; image-rendering:optimizeQuality; fill-rule:evenodd; clip-rule:evenodd" xmlns:xlink="http://www.w3.org/1999/xlink">
<g><path style="opacity:0.85" fill="#fefffe" d="M 17.5,9.5 C 22.2137,9.17338 26.8804,9.50671 31.5,10.5C 32.7853,13.0205 33.4519,15.6872 33.5,18.5C 27.5,18.5 21.5,18.5 15.5,18.5C 15.7556,15.4021 16.4222,12.4021 17.5,9.5 Z"/></g>
<g><path style="opacity:0.797" fill="#fefffe" d="M 9.5,19.5 C 13.8461,19.3343 18.1794,19.501 22.5,20C 23.8333,24.6667 25.1667,24.6667 26.5,20C 30.8713,19.1725 35.2047,19.3391 39.5,20.5C 40.9332,23.333 41.5999,26.333 41.5,29.5C 30.1667,29.5 18.8333,29.5 7.5,29.5C 7.54652,26.0314 8.21319,22.698 9.5,19.5 Z"/></g>
<g><path style="opacity:0.878" fill="#fefffe" d="M 49.5,33.5 C 49.5,35.5 49.5,37.5 49.5,39.5C 32.8333,39.5 16.1667,39.5 -0.5,39.5C -0.5,37.5 -0.5,35.5 -0.5,33.5C 0.403972,32.791 0.737305,31.791 0.5,30.5C 5.17853,30.3342 9.8452,30.5008 14.5,31C 15.3356,35.1679 16.3356,35.3346 17.5,31.5C 22.1667,30.1667 26.8333,30.1667 31.5,31.5C 32.6644,35.3346 33.6644,35.1679 34.5,31C 39.1548,30.5008 43.8215,30.3342 48.5,30.5C 48.2627,31.791 48.596,32.791 49.5,33.5 Z"/></g>
</svg>
