<?xml version="1.0" encoding="UTF-8"?>
<!DOCTYPE svg PUBLIC "-//W3C//DTD SVG 1.1//EN" "http://www.w3.org/Graphics/SVG/1.1/DTD/svg11.dtd">
<svg xmlns="http://www.w3.org/2000/svg" version="1.1" width="50px" height="50px" style="shape-rendering:geometricPrecision; text-rendering:geometricPrecision; image-rendering:optimizeQuality; fill-rule:evenodd; clip-rule:evenodd" xmlns:xlink="http://www.w3.org/1999/xlink">
<g><path style="opacity:0.82" fill="#fefffe" d="M 17.5,33.5 C 12.5625,31.3629 7.89585,28.6962 3.5,25.5C 5.63965,22.9387 7.97299,20.6054 10.5,18.5C 8.1918,16.5293 5.85847,14.5293 3.5,12.5C 7.20461,8.894 11.3713,5.894 16,3.5C 19.2386,4.90203 22.0719,6.90203 24.5,9.5C 27.2627,7.37141 30.096,5.37141 33,3.5C 37.1479,5.57416 41.1479,7.9075 45,10.5C 45.6667,11.1667 45.6667,11.8333 45,12.5C 42.9261,14.4521 40.7594,16.2854 38.5,18C 40.6667,20.1667 42.8333,22.3333 45,24.5C 45.6877,25.3317 45.521,25.9984 44.5,26.5C 40.5834,28.7078 36.75,31.0411 33,33.5C 30.3053,31.3056 27.472,29.3056 24.5,27.5C 21.536,28.8079 19.2026,30.8079 17.5,33.5 Z M 23.5,11.5 C 27.6056,13.3876 31.6056,15.5542 35.5,18C 32.1801,20.9945 28.5134,23.4945 24.5,25.5C 20.7792,23.6465 17.4459,21.3131 14.5,18.5C 17.75,16.3884 20.75,14.0551 23.5,11.5 Z"/></g>
<g><path style="opacity:0.829" fill="#fefffe" d="M 17.5,33.5 C 19.7991,32.2222 22.1324,30.8889 24.5,29.5C 27.472,31.3056 30.3053,33.3056 33,35.5C 34.1096,33.9632 35.6096,33.2965 37.5,33.5C 37.822,35.7224 37.1554,37.5557 35.5,39C 31.9401,41.4033 28.2734,43.5699 24.5,45.5C 20.7266,43.5699 17.0599,41.4033 13.5,39C 11.8446,37.5557 11.178,35.7224 11.5,33.5C 13.3904,33.2965 14.8904,33.9632 16,35.5C 16.7172,34.9558 17.2172,34.2891 17.5,33.5 Z"/></g>
</svg>
