<?xml version="1.0" encoding="UTF-8"?>
<!DOCTYPE svg PUBLIC "-//W3C//DTD SVG 1.1//EN" "http://www.w3.org/Graphics/SVG/1.1/DTD/svg11.dtd">
<svg xmlns="http://www.w3.org/2000/svg" version="1.1" width="50px" height="50px" style="shape-rendering:geometricPrecision; text-rendering:geometricPrecision; image-rendering:optimizeQuality; fill-rule:evenodd; clip-rule:evenodd" xmlns:xlink="http://www.w3.org/1999/xlink">
<g><path style="opacity:0.862" fill="#fefffe" d="M 11.5,1.5 C 20.4178,1.18277 29.2511,1.5161 38,2.5C 39.1333,9.73305 39.6333,17.0664 39.5,24.5C 39.3333,31.1667 39.1667,37.8333 39,44.5C 38.6258,45.4162 38.1258,46.2496 37.5,47C 28.5883,47.8163 19.755,47.6497 11,46.5C 9.86587,39.0998 9.36587,31.5998 9.5,24C 9.66667,17.1667 9.83333,10.3333 10,3.5C 10.7172,2.9558 11.2172,2.28913 11.5,1.5 Z M 14.5,8.5 C 21.1667,8.5 27.8333,8.5 34.5,8.5C 34.5,17.8333 34.5,27.1667 34.5,36.5C 27.8333,36.5 21.1667,36.5 14.5,36.5C 14.5,27.1667 14.5,17.8333 14.5,8.5 Z M 23.5,39.5 C 26.6741,39.9522 27.0075,40.9522 24.5,42.5C 22.4807,41.8671 22.1474,40.8671 23.5,39.5 Z"/></g>
</svg>
