<?xml version="1.0" encoding="UTF-8"?>
<!DOCTYPE svg PUBLIC "-//W3C//DTD SVG 1.1//EN" "http://www.w3.org/Graphics/SVG/1.1/DTD/svg11.dtd">
<svg xmlns="http://www.w3.org/2000/svg" version="1.1" width="50px" height="50px" style="shape-rendering:geometricPrecision; text-rendering:geometricPrecision; image-rendering:optimizeQuality; fill-rule:evenodd; clip-rule:evenodd" xmlns:xlink="http://www.w3.org/1999/xlink">
<g><path style="opacity:0.884" fill="#fefffe" d="M 23.5,3.5 C 29.1635,4.65843 34.8302,4.82509 40.5,4C 44.2353,7.88438 44.402,12.051 41,16.5C 38.5,19 36,21.5 33.5,24C 32.5,24.6667 31.5,24.6667 30.5,24C 26.2477,20.4187 22.7477,16.252 20,11.5C 19.5354,8.04291 20.7021,5.37624 23.5,3.5 Z"/></g>
<g><path style="opacity:0.86" fill="#fefffe" d="M 39.5,24.5 C 41.5,24.5 43.5,24.5 45.5,24.5C 45.6602,26.1992 45.4935,27.8659 45,29.5C 41.1667,33.3333 37.3333,37.1667 33.5,41C 27.8333,41.3333 22.1667,41.6667 16.5,42C 15.2748,43.563 13.7748,44.7297 12,45.5C 8.5,43.3333 5.66667,40.5 3.5,37C 5.78224,33.7143 8.44891,30.7143 11.5,28C 18.0496,26.5796 24.7163,26.0796 31.5,26.5C 31.3996,32.2416 28.3996,34.7416 22.5,34C 25.1667,34.6667 27.8333,34.6667 30.5,34C 33.7044,30.9641 36.7044,27.7974 39.5,24.5 Z"/></g>
</svg>
