<?xml version="1.0" encoding="UTF-8"?>
<!DOCTYPE svg PUBLIC "-//W3C//DTD SVG 1.1//EN" "http://www.w3.org/Graphics/SVG/1.1/DTD/svg11.dtd">
<svg xmlns="http://www.w3.org/2000/svg" version="1.1" width="50px" height="50px" style="shape-rendering:geometricPrecision; text-rendering:geometricPrecision; image-rendering:optimizeQuality; fill-rule:evenodd; clip-rule:evenodd" xmlns:xlink="http://www.w3.org/1999/xlink">
<g><path style="opacity:0.882" fill="#fefffe" d="M 22.5,2.5 C 23.8734,2.34332 25.2068,2.50999 26.5,3C 27.1189,4.7571 28.2856,5.92376 30,6.5C 35.3705,3.33888 37.8705,5.00554 37.5,11.5C 43.6427,11.4332 45.3093,13.9332 42.5,19C 44.1155,20.6373 45.4488,22.4706 46.5,24.5C 45.4488,26.5294 44.1155,28.3627 42.5,30C 45.3844,34.3958 44.051,36.8958 38.5,37.5C 37.9976,40.5117 36.4976,42.845 34,44.5C 32.8061,43.5697 31.4728,42.9031 30,42.5C 28.3627,44.1155 26.5294,45.4488 24.5,46.5C 22.4706,45.4488 20.6373,44.1155 19,42.5C 16.5995,44.5638 14.4329,44.5638 12.5,42.5C 11.9851,40.7749 11.3184,39.1083 10.5,37.5C 4.94896,36.8958 3.61563,34.3958 6.5,30C 4.88451,28.3627 3.55118,26.5294 2.5,24.5C 3.73029,22.5136 5.06363,20.5136 6.5,18.5C 3.93359,13.6848 5.60025,11.3515 11.5,11.5C 11.4332,5.35733 13.9332,3.69066 19,6.5C 20.8563,5.79766 22.023,4.46433 22.5,2.5 Z M 17.5,15.5 C 22.2624,16.0925 23.5957,18.5925 21.5,23C 15.2016,23.4954 13.8682,20.9954 17.5,15.5 Z M 24.5,24.5 C 25.1283,21.91 26.295,19.5766 28,17.5C 28.7175,16.5494 29.5509,16.3828 30.5,17C 28.636,19.6877 26.636,22.1877 24.5,24.5 Z M 24.5,24.5 C 23.9553,26.5932 23.122,28.5932 22,30.5C 21.1627,32.0074 19.9961,32.5074 18.5,32C 20.364,29.3123 22.364,26.8123 24.5,24.5 Z M 27.5,25.5 C 33.704,25.3137 35.0374,27.8137 31.5,33C 29.6332,33.7112 28.1332,33.2112 27,31.5C 26.5099,29.4546 26.6765,27.4546 27.5,25.5 Z"/></g>
<g><path style="opacity:0.523" fill="#fefffe" d="M 17.5,17.5 C 18.5,17.5 19.5,17.5 20.5,17.5C 20.8841,19.6648 20.2174,21.3315 18.5,22.5C 17.5481,20.9547 17.2148,19.288 17.5,17.5 Z"/></g>
<g><path style="opacity:0.522" fill="#fefffe" d="M 29.5,26.5 C 31.256,27.5521 31.9227,29.2188 31.5,31.5C 30.5,31.5 29.5,31.5 28.5,31.5C 28.366,29.7085 28.6993,28.0418 29.5,26.5 Z"/></g>
</svg>
