<?xml version="1.0" encoding="UTF-8"?>
<!DOCTYPE svg PUBLIC "-//W3C//DTD SVG 1.1//EN" "http://www.w3.org/Graphics/SVG/1.1/DTD/svg11.dtd">
<svg xmlns="http://www.w3.org/2000/svg" version="1.1" width="50px" height="50px" style="shape-rendering:geometricPrecision; text-rendering:geometricPrecision; image-rendering:optimizeQuality; fill-rule:evenodd; clip-rule:evenodd" xmlns:xlink="http://www.w3.org/1999/xlink">
<g><path style="opacity:0.923" fill="#fefffe" d="M 35.5,7.5 C 38.8333,7.5 42.1667,7.5 45.5,7.5C 45.5,18.8333 45.5,30.1667 45.5,41.5C 41.8936,41.7892 38.3936,41.4558 35,40.5C 34.1909,29.4236 34.3575,18.4236 35.5,7.5 Z"/></g>
<g><path style="opacity:0.835" fill="#fefffe" d="M 20.5,15.5 C 24.1064,15.2108 27.6064,15.5442 31,16.5C 31.8149,24.7457 31.6483,32.9124 30.5,41C 26.9085,41.7886 23.4085,41.6219 20,40.5C 19.2274,32.1185 19.3941,23.7852 20.5,15.5 Z"/></g>
<g><path style="opacity:0.906" fill="#fefffe" d="M 5.5,24.5 C 9.16667,24.5 12.8333,24.5 16.5,24.5C 16.5,30.1667 16.5,35.8333 16.5,41.5C 12.8333,41.5 9.16667,41.5 5.5,41.5C 5.5,35.8333 5.5,30.1667 5.5,24.5 Z"/></g>
</svg>
